HIERARCHY
ROOT Hips
{
	OFFSET 0.00000 0.00000 0.00000
	CHANNELS 6 Xposition Yposition Zposition Yrotation Zrotation Xrotation 
	JOINT Lumbar
	{
		OFFSET 0 0 0
		CHANNELS 3 Zrotation Xrotation Yrotation
		JOINT Neck
		{
			OFFSET 0.00 0.2701 0.00
			CHANNELS 3 Zrotation Xrotation Yrotation
			End Site
			{
				OFFSET 0.00 0.1379 0.00
			}
		}
		JOINT RightShoulder
		{
			OFFSET 0.0119 0.2289 0.1181
			CHANNELS 3 Zrotation Xrotation Yrotation
			JOINT RightElbow
			{
				OFFSET 0.00 -0.1475 0.00
				CHANNELS 2 Zrotation Yrotation
				JOINT RightWrist
				{
					OFFSET 0.00 -0.1605 0.00
					CHANNELS 2 Zrotation Xrotation
					End Site
					{
						OFFSET 0.0040 -0.1068 0.0006
					}
				}
			}
		}
		JOINT LeftShoulder
		{
			OFFSET 0.0119 0.2289 -0.1181
			CHANNELS 3 Zrotation Xrotation Yrotation
			JOINT LeftElbow
			{
				OFFSET 0.00 -0.1475 0.00
				CHANNELS 2 Zrotation Yrotation
				JOINT LeftWrist
				{
					OFFSET 0.00 -0.1605 0.00
					CHANNELS 2 Zrotation Xrotation
					End Site
					{
						OFFSET 0.0040 -0.1068 -0.0006
					}
				}
			}
		}
	}
	JOINT RightHip
	{
		OFFSET 0.0316 -0.0424 0.0458
		CHANNELS 3 Zrotation Xrotation Yrotation
		JOINT RightKnee
		{
			OFFSET 0.00 -0.2438 0.00
			CHANNELS 1 Zrotation
			JOINT RightAnkle
			{
				OFFSET 0.00 -0.2449 0.00
				CHANNELS 3 Zrotation Xrotation Yrotation
				End Site
				{
					OFFSET 0.1237 -0.0542 0.0051
				}
			}
		}
	}
	JOINT LeftHip
	{
		OFFSET 0.0316 -0.0424 -0.0458
		CHANNELS 3 Zrotation Xrotation Yrotation
		JOINT LeftKnee
		{
			OFFSET 0.00 -0.2438 0.00
			CHANNELS 1 Zrotation
			JOINT LeftAnkle
			{
				OFFSET 0.00 -0.2449 0.00
				CHANNELS 3 Zrotation Xrotation Yrotation
				End Site
				{
					OFFSET 0.1237 -0.0542 -0.0051
				}
			}
		}
	}
}
MOTION
Frames: 11
Frame Time: 0.02
-0 0.57926 -0 178.05309 0 -4.55223 6.6048 4.7569 -0.53568 -24.90981 2.25675 1.4415 -42.9523 -72.04413 -84.53992 17.1052 51.29006 -39.91069 -0.43856 11.24044 69.41143 83.59257 17.5464 -80.72721 -24.87301 3.51727 -3.43225 6.12942 -9.16058 -8.53057 1.01019 -5.07921 -11.40226 -3.20455 4.4196 5.07196 -8.09599 4.74645 6.30982 11.79001
0.0001 0.57926 3e-05 178.03772 0 -4.55967 6.59572 4.75115 -0.5292 -24.96396 2.2677 1.44026 -42.69832 -72.01276 -85.3848 17.45724 50.93192 -39.73359 -0.31638 11.34877 69.40399 83.47344 17.57072 -80.70804 -24.94686 3.56103 -3.43049 6.13485 -9.14963 -8.51127 0.99051 -5.07611 -11.39902 -3.19773 4.42201 5.07022 -8.09503 4.753 6.3114 11.79447
0.00019 0.57926 7e-05 178.02223 0 -4.56708 6.58659 4.74538 -0.52265 -25.01811 2.27857 1.43911 -42.44447 -71.9814 -86.22203 17.80618 50.57651 -39.55627 -0.19487 11.45645 69.39657 83.35541 17.59468 -80.68993 -25.02049 3.60447 -3.42865 6.14023 -9.13871 -8.49206 0.97093 -5.07303 -11.39571 -3.19096 4.42442 5.06876 -8.09397 4.75944 6.31297 11.79885
0.00029 0.57926 0.0001 178.00601 0 -4.57441 6.57725 4.73942 -0.51569 -25.07225 2.28937 1.4385 -42.18955 -71.9495 -87.0415 18.14759 50.22737 -39.37505 -0.07383 11.56288 69.38893 83.23985 17.6175 -80.67662 -25.09349 3.64713 -3.42661 6.14548 -9.12775 -8.47291 0.95171 -5.06999 -11.39199 -3.18446 4.42679 5.06845 -8.09243 4.76545 6.31468 11.80315
0.00039 0.57926 0.00013 177.99353 0 -4.58212 6.56913 4.73441 -0.5108 -25.12581 2.30075 1.43528 -41.94141 -71.92019 -87.96055 18.5306 49.84361 -39.21295 0.05084 11.67627 69.38221 83.11034 17.64643 -80.63875 -25.16923 3.694 -3.42578 6.15143 -9.11696 -8.45332 0.93073 -5.06674 -11.39036 -3.1767 4.42934 5.06209 -8.09332 4.77365 6.31581 11.80812
0.00049 0.57926 0.00016 177.97324 0 -4.58904 6.55838 4.72742 -0.50161 -25.18094 2.31074 1.43743 -41.67844 -71.88561 -88.66431 18.82407 49.53443 -39.0116 0.16693 11.77461 69.37369 83.01105 17.66237 -80.65226 -25.23953 3.73184 -3.4223 6.1559 -9.10583 -8.43477 0.91342 -5.06392 -11.38436 -3.1715 4.43151 5.06852 -8.08912 4.77726 6.31807 11.81152
0.00063 0.57926 0.00019 177.92912 0 -4.59378 6.54028 4.71443 -0.47912 -25.23893 2.3184 1.45634 -41.37176 -71.83326 -88.80422 18.8797 49.4217 -38.68339 0.26865 11.83458 69.35851 82.99004 17.64193 -80.81855 -25.29253 3.74571 -3.41202 6.15626 -9.0933 -8.41784 0.90683 -5.06249 -11.36512 -3.17424 4.43251 5.11173 -8.06997 4.76762 6.32447 11.81166
0.00078 0.57927 0.00021 177.87746 0 -4.59772 6.51953 4.69955 -0.45249 -25.29887 2.32442 1.48036 -41.05025 -71.77608 -88.72221 18.8436 49.38561 -38.31841 0.36024 11.87901 69.34173 83.00021 17.60849 -81.03488 -25.34041 3.7503 -3.39897 6.15513 -9.08046 -8.40219 0.90387 -5.06148 -11.34169 -3.1794 4.43312 5.16762 -8.04583 4.75344 6.33186 11.81005
0.00093 0.57927 0.00023 177.83067 0 -4.60206 6.50001 4.68587 -0.42865 -25.3589 2.3302 1.50076 -40.737 -71.72321 -88.72075 18.84295 49.32091 -37.98207 0.45034 11.92829 69.32685 82.99974 17.58127 -81.22147 -25.39234 3.75855 -3.38685 6.15472 -9.06808 -8.38677 0.89883 -5.06012 -11.32091 -3.18289 4.43398 5.21683 -8.02452 4.74172 6.33815 11.80847
0.00108 0.57928 0.00025 177.77786 0 -4.60628 6.48038 4.67071 -0.40106 -25.41464 2.34004 1.52651 -40.41758 -71.66162 -88.80119 18.86721 49.23119 -37.59615 0.56557 11.98614 69.30731 82.9854 17.5526 -81.43763 -25.43746 3.76919 -3.37613 6.15417 -9.05445 -8.36793 0.89548 -5.05937 -11.29693 -3.18877 4.43457 5.26995 -8.00079 4.72838 6.34712 11.80996
0.00123 0.57928 0.00028 177.7357 0 -4.61053 6.46038 4.65822 -0.3802 -25.47998 2.34117 1.54251 -40.10725 -71.61679 -88.66301 18.81952 49.2103 -37.30385 0.62678 12.02337 69.29675 83.0061 17.52404 -81.60403 -25.49496 3.77261 -3.36181 6.15353 -9.0432 -8.35653 0.88961 -5.05751 -11.27868 -3.19024 4.43559 5.31789 -7.98096 4.7173 6.35082 11.80486
